<svg width="679" height="889" viewBox="0 0 679 889" fill="none" xmlns="http://www.w3.org/2000/svg">
<g filter="url(#filter0_b)">
<mask id="path-1-inside-1" fill="white">
<path fill-rule="evenodd" clip-rule="evenodd" d="M200.833 -2723.59L200.393 -2723.85C108.474 -2778.51 42.6976 -2866.86 14.9019 -2972.35C-12.894 -3077.85 0.705923 -3187.52 53.3576 -3281.88L53.3585 -3281.88C105.959 -3375.3 190.881 -3442.63 293.09 -3470.48C395.298 -3498.33 501.869 -3483.49 593.863 -3428.54L594.278 -3428.29L594.04 -3427.87L591.604 -3423.5L591.352 -3423.05L590.911 -3423.31C404.199 -3534.84 165.499 -3469.8 58.636 -3278.28C6.92569 -3185.6 -6.59168 -3077.14 20.6838 -2973.62C48.0351 -2869.82 112.995 -2783.05 203.344 -2729.08L203.759 -2728.83L203.521 -2728.41L201.085 -2724.04L200.833 -2723.59ZM200.467 -2724.98L202.414 -2728.47C112.056 -2782.58 47.0939 -2869.46 19.719 -2973.36C-7.62184 -3077.12 5.92694 -3185.85 57.7663 -3278.76C164.822 -3470.63 403.856 -3535.89 590.986 -3424.44L592.933 -3427.93C501.261 -3482.54 395.134 -3497.24 293.344 -3469.51C191.402 -3441.73 106.697 -3374.58 54.2264 -3281.39C1.70484 -3187.26 -11.8638 -3077.86 15.8667 -2972.62C43.5532 -2867.54 109.006 -2779.52 200.467 -2724.98ZM214.309 -2747.32L213.869 -2747.58C37.3266 -2853.03 -24.0437 -3085.94 76.9988 -3267.03C127.345 -3357.68 209.25 -3418.32 300.296 -3443.13C391.342 -3467.93 492.087 -3457.07 580.26 -3404.16L580.674 -3403.91L580.437 -3403.49L578 -3399.12L577.748 -3398.67L577.308 -3398.93C403.721 -3502.62 181.476 -3442.06 82.1255 -3264C-17.2311 -3085.94 43.2234 -2856.5 216.82 -2752.81L217.235 -2752.56L216.998 -2752.13L214.561 -2747.77L214.309 -2747.32ZM215.89 -2752.19C42.1501 -2856.28 -18.2863 -3086.09 81.2558 -3264.49C180.799 -3442.89 403.378 -3503.67 577.382 -3400.06L579.33 -3403.55C491.494 -3456.1 391.202 -3466.86 300.551 -3442.16C209.758 -3417.42 128.079 -3356.96 77.869 -3266.55L77.8685 -3266.55C-22.8254 -3086.08 38.2017 -2854 213.943 -2748.7L215.89 -2752.19ZM228.546 -2771.56L228.106 -2771.82C148.884 -2819.14 92.0467 -2895.12 68.0435 -2986.22C44.1162 -3077.03 55.9067 -3172.01 101.249 -3253.27C145.831 -3334.02 219.443 -3392.09 307.426 -3416.06C395.411 -3440.04 487.711 -3427.18 566.934 -3379.86L567.349 -3379.61L567.112 -3379.18L564.675 -3374.82L564.423 -3374.37L563.983 -3374.63C486.052 -3421.18 395.651 -3433.51 309.325 -3409.99C222.722 -3386.39 150.573 -3329.46 106.249 -3249.6L106.248 -3249.59C61.6449 -3169.66 50.3425 -3076.61 73.8254 -2987.48C97.3841 -2898.07 153.201 -2823.31 231.056 -2777.05L231.473 -2776.81L231.235 -2776.38L228.798 -2772.01L228.546 -2771.56ZM230.127 -2776.44C152.261 -2822.85 96.4424 -2897.72 72.8606 -2987.22C49.3129 -3076.59 60.6451 -3169.91 105.379 -3250.08C149.834 -3330.17 222.202 -3387.29 309.071 -3410.96C395.497 -3434.51 485.998 -3422.22 564.057 -3375.75L566.004 -3379.24C487.101 -3426.22 395.247 -3438.96 307.681 -3415.1C219.961 -3391.2 146.571 -3333.3 102.12 -3252.79L102.119 -3252.79C56.9056 -3171.76 45.1463 -3077.04 69.0083 -2986.48C92.9017 -2895.8 149.414 -2820.15 228.181 -2772.95L230.127 -2776.44ZM241.441 -2796.36L241.001 -2796.63C90.4302 -2886.32 38.0873 -3084.98 124.308 -3239.5L124.308 -3239.5C167.293 -3316.11 236.897 -3367.84 314.557 -3389C392.217 -3410.16 477.929 -3400.76 553.178 -3356.05L553.595 -3355.81L553.357 -3355.38L550.92 -3351.01L550.668 -3350.56L550.228 -3350.82C402.538 -3439.04 213.837 -3387.31 129.51 -3236.18C44.9757 -3084.68 96.6058 -2889.87 243.951 -2801.86L244.366 -2801.61L244.129 -2801.18L241.692 -2796.82L241.441 -2796.36ZM241.075 -2797.75L243.022 -2801.24C95.5326 -2889.65 43.9204 -3084.83 128.641 -3236.67C213.159 -3388.14 402.195 -3440.09 550.302 -3351.95L552.249 -3355.44C477.336 -3399.79 392.074 -3409.09 314.812 -3388.04C237.406 -3366.94 168.027 -3315.39 125.177 -3239.02C39.3053 -3085.12 91.306 -2887.29 241.075 -2797.75ZM255.12 -2820.46L254.679 -2820.72C117.16 -2902.86 69.3676 -3084.24 148.076 -3225.3C187.127 -3295.29 250.721 -3342.6 321.687 -3361.94C392.654 -3381.28 470.99 -3372.64 539.853 -3331.75L540.27 -3331.5L540.032 -3331.07L537.595 -3326.71L537.343 -3326.26L536.903 -3326.52C402.339 -3406.9 230.295 -3360.02 153.278 -3221.99C76.256 -3083.95 123.056 -2906.33 257.631 -2825.95L258.046 -2825.7L257.808 -2825.27L255.372 -2820.91L255.12 -2820.46ZM254.754 -2821.85L256.701 -2825.33C121.983 -2906.11 75.2009 -3084.1 152.409 -3222.47C229.617 -3360.85 401.996 -3407.94 536.977 -3327.64L538.924 -3331.13C470.396 -3371.67 392.511 -3380.2 321.942 -3360.97C251.229 -3341.71 187.861 -3294.56 148.946 -3224.82C70.5859 -3084.38 118.035 -2903.83 254.754 -2821.85ZM268.52 -2844.47L268.08 -2844.74C207.659 -2880.83 164.575 -2938.64 146.337 -3007.86C128.099 -3077.08 136.984 -3149.05 171.565 -3211.03C206.963 -3274.47 264.622 -3317.08 328.894 -3334.59C393.165 -3352.1 464.05 -3344.52 526.251 -3307.37L526.666 -3307.12L526.428 -3306.69L523.992 -3302.33L523.74 -3301.88L523.3 -3302.14C401.861 -3374.68 246.272 -3332.28 176.768 -3207.71C143.128 -3147.43 134.25 -3076.94 152.119 -3009.13C169.912 -2941.6 212.255 -2885.07 271.031 -2849.97L271.446 -2849.72L271.209 -2849.29L268.772 -2844.92L268.52 -2844.47ZM270.102 -2849.35C211.316 -2884.61 168.971 -2941.24 151.154 -3008.86C133.22 -3076.93 142.129 -3147.68 175.898 -3208.2C245.594 -3333.11 401.518 -3375.72 523.374 -3303.26L525.321 -3306.75C463.459 -3343.55 393.025 -3351.03 329.148 -3333.62C265.128 -3316.18 207.695 -3273.74 172.435 -3210.55C137.983 -3148.8 129.129 -3077.09 147.302 -3008.12C165.43 -2939.32 208.191 -2881.83 268.155 -2845.86L270.102 -2849.35ZM281.921 -2868.49L281.481 -2868.75C170.213 -2935.21 131.168 -3082.26 195.131 -3196.47C227.076 -3253.72 278.445 -3291.84 336.024 -3307.53C393.602 -3323.22 457.112 -3316.4 512.649 -3282.99L513.062 -3282.74L512.825 -3282.31L510.388 -3277.95L510.137 -3277.5L509.697 -3277.76C401.105 -3342.38 262.529 -3304.62 200.258 -3193.44C138.335 -3082.04 176.033 -2938.97 284.433 -2873.98L284.846 -2873.73L284.609 -2873.31L282.173 -2868.94L281.921 -2868.49ZM283.503 -2873.37C174.961 -2938.75 137.281 -3082.19 199.387 -3193.93L199.388 -3193.93C261.851 -3305.45 400.762 -3343.43 509.77 -3278.88L511.718 -3282.37C456.519 -3315.43 393.463 -3322.14 336.279 -3306.56C278.954 -3290.94 227.81 -3252.99 196 -3195.98L196 -3195.98C132.388 -3082.4 171.086 -2936.19 281.555 -2869.88L283.503 -2873.37ZM319.832 304.512C436.633 140.196 628.548 33 845.5 33C1201.45 33 1490 321.552 1490 677.5C1490 1033.45 1201.45 1322 845.5 1322C624.985 1322 430.336 1211.25 314.138 1042.35C215.092 951.492 153 820.998 153 676C153 528.244 217.478 395.547 319.832 304.512Z"/>
</mask>
<path fill-rule="evenodd" clip-rule="evenodd" d="M200.833 -2723.59L200.393 -2723.85C108.474 -2778.51 42.6976 -2866.86 14.9019 -2972.35C-12.894 -3077.85 0.705923 -3187.52 53.3576 -3281.88L53.3585 -3281.88C105.959 -3375.3 190.881 -3442.63 293.09 -3470.48C395.298 -3498.33 501.869 -3483.49 593.863 -3428.54L594.278 -3428.29L594.04 -3427.87L591.604 -3423.5L591.352 -3423.05L590.911 -3423.31C404.199 -3534.84 165.499 -3469.8 58.636 -3278.28C6.92569 -3185.6 -6.59168 -3077.14 20.6838 -2973.62C48.0351 -2869.82 112.995 -2783.05 203.344 -2729.08L203.759 -2728.83L203.521 -2728.41L201.085 -2724.04L200.833 -2723.59ZM200.467 -2724.98L202.414 -2728.47C112.056 -2782.58 47.0939 -2869.46 19.719 -2973.36C-7.62184 -3077.12 5.92694 -3185.85 57.7663 -3278.76C164.822 -3470.63 403.856 -3535.89 590.986 -3424.44L592.933 -3427.93C501.261 -3482.54 395.134 -3497.24 293.344 -3469.51C191.402 -3441.73 106.697 -3374.58 54.2264 -3281.39C1.70484 -3187.26 -11.8638 -3077.86 15.8667 -2972.62C43.5532 -2867.54 109.006 -2779.52 200.467 -2724.98ZM214.309 -2747.32L213.869 -2747.58C37.3266 -2853.03 -24.0437 -3085.94 76.9988 -3267.03C127.345 -3357.68 209.25 -3418.32 300.296 -3443.13C391.342 -3467.93 492.087 -3457.07 580.26 -3404.16L580.674 -3403.91L580.437 -3403.49L578 -3399.12L577.748 -3398.67L577.308 -3398.93C403.721 -3502.62 181.476 -3442.06 82.1255 -3264C-17.2311 -3085.94 43.2234 -2856.5 216.82 -2752.81L217.235 -2752.56L216.998 -2752.13L214.561 -2747.77L214.309 -2747.32ZM215.89 -2752.19C42.1501 -2856.28 -18.2863 -3086.09 81.2558 -3264.49C180.799 -3442.89 403.378 -3503.67 577.382 -3400.06L579.33 -3403.55C491.494 -3456.1 391.202 -3466.86 300.551 -3442.16C209.758 -3417.42 128.079 -3356.96 77.869 -3266.55L77.8685 -3266.55C-22.8254 -3086.08 38.2017 -2854 213.943 -2748.7L215.89 -2752.19ZM228.546 -2771.56L228.106 -2771.82C148.884 -2819.14 92.0467 -2895.12 68.0435 -2986.22C44.1162 -3077.03 55.9067 -3172.01 101.249 -3253.27C145.831 -3334.02 219.443 -3392.09 307.426 -3416.06C395.411 -3440.04 487.711 -3427.18 566.934 -3379.86L567.349 -3379.61L567.112 -3379.18L564.675 -3374.82L564.423 -3374.37L563.983 -3374.63C486.052 -3421.18 395.651 -3433.51 309.325 -3409.99C222.722 -3386.39 150.573 -3329.46 106.249 -3249.6L106.248 -3249.59C61.6449 -3169.66 50.3425 -3076.61 73.8254 -2987.48C97.3841 -2898.07 153.201 -2823.31 231.056 -2777.05L231.473 -2776.81L231.235 -2776.38L228.798 -2772.01L228.546 -2771.56ZM230.127 -2776.44C152.261 -2822.85 96.4424 -2897.72 72.8606 -2987.22C49.3129 -3076.59 60.6451 -3169.91 105.379 -3250.08C149.834 -3330.17 222.202 -3387.29 309.071 -3410.96C395.497 -3434.51 485.998 -3422.22 564.057 -3375.75L566.004 -3379.24C487.101 -3426.22 395.247 -3438.96 307.681 -3415.1C219.961 -3391.2 146.571 -3333.3 102.12 -3252.79L102.119 -3252.79C56.9056 -3171.76 45.1463 -3077.04 69.0083 -2986.48C92.9017 -2895.8 149.414 -2820.15 228.181 -2772.95L230.127 -2776.44ZM241.441 -2796.36L241.001 -2796.63C90.4302 -2886.32 38.0873 -3084.98 124.308 -3239.5L124.308 -3239.5C167.293 -3316.11 236.897 -3367.84 314.557 -3389C392.217 -3410.16 477.929 -3400.76 553.178 -3356.05L553.595 -3355.81L553.357 -3355.38L550.92 -3351.01L550.668 -3350.56L550.228 -3350.82C402.538 -3439.04 213.837 -3387.31 129.51 -3236.18C44.9757 -3084.68 96.6058 -2889.87 243.951 -2801.86L244.366 -2801.61L244.129 -2801.18L241.692 -2796.82L241.441 -2796.36ZM241.075 -2797.75L243.022 -2801.24C95.5326 -2889.65 43.9204 -3084.83 128.641 -3236.67C213.159 -3388.14 402.195 -3440.09 550.302 -3351.95L552.249 -3355.44C477.336 -3399.79 392.074 -3409.09 314.812 -3388.04C237.406 -3366.94 168.027 -3315.39 125.177 -3239.02C39.3053 -3085.12 91.306 -2887.29 241.075 -2797.75ZM255.12 -2820.46L254.679 -2820.72C117.16 -2902.86 69.3676 -3084.24 148.076 -3225.3C187.127 -3295.29 250.721 -3342.6 321.687 -3361.94C392.654 -3381.28 470.99 -3372.64 539.853 -3331.75L540.27 -3331.5L540.032 -3331.07L537.595 -3326.71L537.343 -3326.26L536.903 -3326.52C402.339 -3406.9 230.295 -3360.02 153.278 -3221.99C76.256 -3083.95 123.056 -2906.33 257.631 -2825.95L258.046 -2825.7L257.808 -2825.27L255.372 -2820.91L255.12 -2820.46ZM254.754 -2821.85L256.701 -2825.33C121.983 -2906.11 75.2009 -3084.1 152.409 -3222.47C229.617 -3360.85 401.996 -3407.94 536.977 -3327.64L538.924 -3331.13C470.396 -3371.67 392.511 -3380.2 321.942 -3360.97C251.229 -3341.71 187.861 -3294.56 148.946 -3224.82C70.5859 -3084.38 118.035 -2903.83 254.754 -2821.85ZM268.52 -2844.47L268.08 -2844.74C207.659 -2880.83 164.575 -2938.64 146.337 -3007.86C128.099 -3077.08 136.984 -3149.05 171.565 -3211.03C206.963 -3274.47 264.622 -3317.08 328.894 -3334.59C393.165 -3352.1 464.05 -3344.52 526.251 -3307.37L526.666 -3307.12L526.428 -3306.69L523.992 -3302.33L523.74 -3301.88L523.3 -3302.14C401.861 -3374.68 246.272 -3332.28 176.768 -3207.71C143.128 -3147.43 134.25 -3076.94 152.119 -3009.13C169.912 -2941.6 212.255 -2885.07 271.031 -2849.97L271.446 -2849.72L271.209 -2849.29L268.772 -2844.92L268.52 -2844.47ZM270.102 -2849.35C211.316 -2884.61 168.971 -2941.24 151.154 -3008.86C133.22 -3076.93 142.129 -3147.68 175.898 -3208.2C245.594 -3333.11 401.518 -3375.72 523.374 -3303.26L525.321 -3306.75C463.459 -3343.55 393.025 -3351.03 329.148 -3333.62C265.128 -3316.18 207.695 -3273.74 172.435 -3210.55C137.983 -3148.8 129.129 -3077.09 147.302 -3008.12C165.43 -2939.32 208.191 -2881.83 268.155 -2845.86L270.102 -2849.35ZM281.921 -2868.49L281.481 -2868.75C170.213 -2935.21 131.168 -3082.26 195.131 -3196.47C227.076 -3253.72 278.445 -3291.84 336.024 -3307.53C393.602 -3323.22 457.112 -3316.4 512.649 -3282.99L513.062 -3282.74L512.825 -3282.31L510.388 -3277.95L510.137 -3277.5L509.697 -3277.76C401.105 -3342.38 262.529 -3304.62 200.258 -3193.44C138.335 -3082.04 176.033 -2938.97 284.433 -2873.98L284.846 -2873.73L284.609 -2873.31L282.173 -2868.94L281.921 -2868.49ZM283.503 -2873.37C174.961 -2938.75 137.281 -3082.19 199.387 -3193.93L199.388 -3193.93C261.851 -3305.45 400.762 -3343.43 509.77 -3278.88L511.718 -3282.37C456.519 -3315.43 393.463 -3322.14 336.279 -3306.56C278.954 -3290.94 227.81 -3252.99 196 -3195.98L196 -3195.98C132.388 -3082.4 171.086 -2936.19 281.555 -2869.88L283.503 -2873.37ZM319.832 304.512C436.633 140.196 628.548 33 845.5 33C1201.45 33 1490 321.552 1490 677.5C1490 1033.45 1201.45 1322 845.5 1322C624.985 1322 430.336 1211.25 314.138 1042.35C215.092 951.492 153 820.998 153 676C153 528.244 217.478 395.547 319.832 304.512Z" fill="url(#paint0_radial)" fill-opacity="0.2"/>
<path d="M200.393 -2723.85L199.371 -2722.13L199.371 -2722.13L200.393 -2723.85ZM200.833 -2723.59L199.811 -2721.87L201.578 -2720.82L202.58 -2722.61L200.833 -2723.59ZM14.9019 -2972.35L16.8359 -2972.86L16.8359 -2972.86L14.9019 -2972.35ZM53.3576 -3281.88L55.1041 -3280.91L55.1107 -3280.92L53.3576 -3281.88ZM53.3585 -3281.88L51.6158 -3282.86L51.6105 -3282.85L51.6054 -3282.84L53.3585 -3281.88ZM293.09 -3470.48L292.564 -3472.41L293.09 -3470.48ZM593.863 -3428.54L594.888 -3430.26L594.888 -3430.26L593.863 -3428.54ZM594.278 -3428.29L596.024 -3427.32L596.97 -3429.02L595.303 -3430.01L594.278 -3428.29ZM594.04 -3427.87L595.787 -3426.89L595.787 -3426.89L594.04 -3427.87ZM591.604 -3423.5L589.857 -3424.48L589.857 -3424.48L591.604 -3423.5ZM591.352 -3423.05L590.326 -3421.33L592.095 -3420.28L593.098 -3422.08L591.352 -3423.05ZM590.911 -3423.31L591.937 -3425.03L591.937 -3425.03L590.911 -3423.31ZM58.636 -3278.28L60.3825 -3277.3L60.3825 -3277.3L58.636 -3278.28ZM20.6838 -2973.62L22.6178 -2974.13L22.6178 -2974.13L20.6838 -2973.62ZM203.344 -2729.08L202.318 -2727.36L202.318 -2727.36L203.344 -2729.08ZM203.759 -2728.83L205.505 -2727.86L206.451 -2729.55L204.784 -2730.55L203.759 -2728.83ZM203.521 -2728.41L201.775 -2729.38L201.775 -2729.38L203.521 -2728.41ZM201.085 -2724.04L202.831 -2723.06L202.831 -2723.06L201.085 -2724.04ZM202.414 -2728.47L204.16 -2727.49L205.106 -2729.18L203.442 -2730.18L202.414 -2728.47ZM200.467 -2724.98L199.442 -2723.26L201.21 -2722.2L202.213 -2724L200.467 -2724.98ZM19.719 -2973.36L17.785 -2972.85L17.785 -2972.85L19.719 -2973.36ZM57.7663 -3278.76L56.0198 -3279.74L56.0198 -3279.74L57.7663 -3278.76ZM590.986 -3424.44L589.962 -3422.72L591.73 -3421.67L592.732 -3423.46L590.986 -3424.44ZM592.933 -3427.93L594.679 -3426.95L595.627 -3428.65L593.956 -3429.65L592.933 -3427.93ZM293.344 -3469.51L292.819 -3471.44L292.819 -3471.44L293.344 -3469.51ZM54.2264 -3281.39L52.4836 -3282.37L52.4798 -3282.37L54.2264 -3281.39ZM15.8667 -2972.62L13.9327 -2972.11L13.9327 -2972.11L15.8667 -2972.62ZM213.869 -2747.58L212.843 -2745.86L212.843 -2745.86L213.869 -2747.58ZM214.309 -2747.32L213.284 -2745.6L215.052 -2744.54L216.056 -2746.34L214.309 -2747.32ZM76.9988 -3267.03L78.7453 -3266.06L78.7472 -3266.06L76.9988 -3267.03ZM300.296 -3443.13L300.822 -3441.2L300.822 -3441.2L300.296 -3443.13ZM580.26 -3404.16L579.231 -3402.45L579.231 -3402.45L580.26 -3404.16ZM580.674 -3403.91L582.42 -3402.94L583.365 -3404.63L581.703 -3405.63L580.674 -3403.91ZM580.437 -3403.49L578.69 -3404.46L578.69 -3404.46L580.437 -3403.49ZM578 -3399.12L576.254 -3400.1L576.254 -3400.1L578 -3399.12ZM577.748 -3398.67L576.723 -3396.95L578.491 -3395.9L579.495 -3397.7L577.748 -3398.67ZM577.308 -3398.93L576.282 -3397.22L576.283 -3397.22L577.308 -3398.93ZM82.1255 -3264L83.872 -3263.03L83.872 -3263.03L82.1255 -3264ZM216.82 -2752.81L217.846 -2754.52L217.846 -2754.52L216.82 -2752.81ZM217.235 -2752.56L218.982 -2751.59L219.928 -2753.28L218.261 -2754.28L217.235 -2752.56ZM216.998 -2752.13L218.744 -2751.16L218.744 -2751.16L216.998 -2752.13ZM214.561 -2747.77L216.308 -2746.79L216.308 -2746.79L214.561 -2747.77ZM81.2558 -3264.49L83.0023 -3263.51L83.0023 -3263.51L81.2558 -3264.49ZM215.89 -2752.19L217.637 -2751.22L218.582 -2752.91L216.918 -2753.91L215.89 -2752.19ZM577.382 -3400.06L576.359 -3398.34L578.127 -3397.29L579.129 -3399.08L577.382 -3400.06ZM579.33 -3403.55L581.076 -3402.57L582.022 -3404.27L580.357 -3405.26L579.33 -3403.55ZM300.551 -3442.16L300.025 -3444.09L300.025 -3444.09L300.551 -3442.16ZM77.869 -3266.55L76.1205 -3267.52L76.1129 -3267.5L76.1056 -3267.49L77.869 -3266.55ZM77.8685 -3266.55L79.615 -3265.57L79.6236 -3265.59L79.6319 -3265.6L77.8685 -3266.55ZM213.943 -2748.7L212.916 -2746.99L214.685 -2745.93L215.69 -2747.73L213.943 -2748.7ZM228.106 -2771.82L229.132 -2773.54L229.132 -2773.54L228.106 -2771.82ZM228.546 -2771.56L227.52 -2769.84L229.289 -2768.79L230.293 -2770.59L228.546 -2771.56ZM68.0435 -2986.22L66.1095 -2985.71L66.1095 -2985.71L68.0435 -2986.22ZM101.249 -3253.27L102.995 -3252.3L103 -3252.31L101.249 -3253.27ZM307.426 -3416.06L307.952 -3414.13L307.426 -3416.06ZM566.934 -3379.86L565.909 -3378.14L565.909 -3378.14L566.934 -3379.86ZM567.349 -3379.61L569.096 -3378.63L570.042 -3380.33L568.375 -3381.33L567.349 -3379.61ZM567.112 -3379.18L565.365 -3380.16L565.365 -3380.16L567.112 -3379.18ZM564.675 -3374.82L562.929 -3375.79L562.929 -3375.79L564.675 -3374.82ZM564.423 -3374.37L563.398 -3372.65L565.166 -3371.59L566.17 -3373.39L564.423 -3374.37ZM563.983 -3374.63L562.958 -3372.91L562.958 -3372.91L563.983 -3374.63ZM309.325 -3409.99L309.851 -3408.06L309.851 -3408.06L309.325 -3409.99ZM106.249 -3249.6L107.98 -3248.59L107.989 -3248.61L107.998 -3248.62L106.249 -3249.6ZM106.248 -3249.59L104.517 -3250.6L104.509 -3250.58L104.502 -3250.57L106.248 -3249.59ZM73.8254 -2987.48L75.7594 -2987.99L75.7594 -2987.99L73.8254 -2987.48ZM231.056 -2777.05L232.078 -2778.77L232.078 -2778.77L231.056 -2777.05ZM231.473 -2776.81L233.219 -2775.83L234.167 -2777.53L232.495 -2778.52L231.473 -2776.81ZM231.235 -2776.38L229.488 -2777.35L229.488 -2777.35L231.235 -2776.38ZM228.798 -2772.01L230.545 -2771.04L230.545 -2771.04L228.798 -2772.01ZM72.8606 -2987.22L74.7946 -2987.73L72.8606 -2987.22ZM230.127 -2776.44L231.874 -2775.46L232.821 -2777.16L231.151 -2778.16L230.127 -2776.44ZM105.379 -3250.08L107.125 -3249.1L107.127 -3249.11L105.379 -3250.08ZM309.071 -3410.96L309.596 -3409.03L309.596 -3409.03L309.071 -3410.96ZM564.057 -3375.75L563.034 -3374.03L564.802 -3372.98L565.804 -3374.78L564.057 -3375.75ZM566.004 -3379.24L567.751 -3378.27L568.698 -3379.97L567.028 -3380.96L566.004 -3379.24ZM307.681 -3415.1L308.207 -3413.17L308.207 -3413.17L307.681 -3415.1ZM102.12 -3252.79L103.854 -3251.79L103.862 -3251.81L103.871 -3251.82L102.12 -3252.79ZM102.119 -3252.79L100.384 -3253.78L100.378 -3253.77L100.372 -3253.76L102.119 -3252.79ZM69.0083 -2986.48L70.9423 -2986.99L69.0083 -2986.48ZM228.181 -2772.95L227.153 -2771.23L228.922 -2770.17L229.927 -2771.97L228.181 -2772.95ZM241.001 -2796.63L239.977 -2794.91L239.977 -2794.91L241.001 -2796.63ZM241.441 -2796.36L240.417 -2794.65L242.185 -2793.59L243.187 -2795.39L241.441 -2796.36ZM124.308 -3239.5L126.054 -3238.53L126.059 -3238.53L124.308 -3239.5ZM124.308 -3239.5L122.564 -3240.48L122.561 -3240.47L122.557 -3240.47L124.308 -3239.5ZM314.557 -3389L314.031 -3390.93L314.557 -3389ZM553.178 -3356.05L552.157 -3354.33L552.157 -3354.33L553.178 -3356.05ZM553.595 -3355.81L555.341 -3354.83L556.29 -3356.53L554.616 -3357.53L553.595 -3355.81ZM553.357 -3355.38L555.103 -3354.4L555.103 -3354.4L553.357 -3355.38ZM550.92 -3351.01L549.174 -3351.99L549.174 -3351.99L550.92 -3351.01ZM550.668 -3350.56L549.643 -3348.84L551.411 -3347.79L552.415 -3349.59L550.668 -3350.56ZM550.228 -3350.82L549.202 -3349.11L549.202 -3349.11L550.228 -3350.82ZM129.51 -3236.18L127.764 -3237.16L127.764 -3237.16L129.51 -3236.18ZM243.951 -2801.86L242.926 -2800.14L242.926 -2800.14L243.951 -2801.86ZM244.366 -2801.61L246.113 -2800.63L247.059 -2802.33L245.392 -2803.33L244.366 -2801.61ZM244.129 -2801.18L242.382 -2802.16L242.382 -2802.16L244.129 -2801.18ZM241.692 -2796.82L243.439 -2795.84L243.439 -2795.84L241.692 -2796.82ZM243.022 -2801.24L244.768 -2800.27L245.713 -2801.96L244.05 -2802.96L243.022 -2801.24ZM241.075 -2797.75L240.048 -2796.04L241.817 -2794.98L242.821 -2796.78L241.075 -2797.75ZM128.641 -3236.67L130.387 -3235.7L130.387 -3235.7L128.641 -3236.67ZM550.302 -3351.95L549.279 -3350.23L551.047 -3349.18L552.049 -3350.97L550.302 -3351.95ZM552.249 -3355.44L553.995 -3354.46L554.945 -3356.17L553.267 -3357.16L552.249 -3355.44ZM314.812 -3388.04L314.286 -3389.97L314.286 -3389.97L314.812 -3388.04ZM125.177 -3239.02L123.433 -3239.99L123.431 -3239.99L125.177 -3239.02ZM254.679 -2820.72L253.654 -2819L253.654 -2819L254.679 -2820.72ZM255.12 -2820.46L254.094 -2818.74L255.862 -2817.68L256.866 -2819.48L255.12 -2820.46ZM148.076 -3225.3L146.329 -3226.28L146.329 -3226.28L148.076 -3225.3ZM321.687 -3361.94L321.161 -3363.87L321.161 -3363.87L321.687 -3361.94ZM539.853 -3331.75L538.832 -3330.03L538.832 -3330.03L539.853 -3331.75ZM540.27 -3331.5L542.016 -3330.53L542.965 -3332.23L541.291 -3333.22L540.27 -3331.5ZM540.032 -3331.07L538.285 -3332.05L538.285 -3332.05L540.032 -3331.07ZM537.595 -3326.71L535.849 -3327.68L535.849 -3327.68L537.595 -3326.71ZM537.343 -3326.26L536.318 -3324.54L538.086 -3323.48L539.09 -3325.28L537.343 -3326.26ZM536.903 -3326.52L537.929 -3328.24L537.929 -3328.24L536.903 -3326.52ZM153.278 -3221.99L151.532 -3222.96L151.532 -3222.96L153.278 -3221.99ZM257.631 -2825.95L256.605 -2824.23L256.605 -2824.23L257.631 -2825.95ZM258.046 -2825.7L259.792 -2824.73L260.738 -2826.42L259.071 -2827.42L258.046 -2825.7ZM257.808 -2825.27L259.555 -2824.3L259.555 -2824.3L257.808 -2825.27ZM255.372 -2820.91L257.118 -2819.93L257.118 -2819.93L255.372 -2820.91ZM256.701 -2825.33L258.447 -2824.36L259.392 -2826.05L257.729 -2827.05L256.701 -2825.33ZM254.754 -2821.85L253.725 -2820.13L255.495 -2819.07L256.501 -2820.87L254.754 -2821.85ZM152.409 -3222.47L154.155 -3221.5L154.155 -3221.5L152.409 -3222.47ZM536.977 -3327.64L535.955 -3325.93L537.722 -3324.87L538.724 -3326.67L536.977 -3327.64ZM538.924 -3331.13L540.67 -3330.16L541.62 -3331.86L539.942 -3332.85L538.924 -3331.13ZM321.942 -3360.97L322.468 -3359.04L322.468 -3359.04L321.942 -3360.97ZM148.946 -3224.82L150.692 -3223.84L150.692 -3223.84L148.946 -3224.82ZM268.08 -2844.74L267.054 -2843.02L267.055 -2843.02L268.08 -2844.74ZM268.52 -2844.47L267.495 -2842.76L269.263 -2841.7L270.267 -2843.5L268.52 -2844.47ZM146.337 -3007.86L148.271 -3008.37L148.271 -3008.37L146.337 -3007.86ZM171.565 -3211.03L169.819 -3212L169.819 -3212L171.565 -3211.03ZM328.894 -3334.59L329.419 -3332.66L329.419 -3332.66L328.894 -3334.59ZM526.251 -3307.37L525.225 -3305.65L525.225 -3305.65L526.251 -3307.37ZM526.666 -3307.12L528.412 -3306.15L529.359 -3307.84L527.691 -3308.84L526.666 -3307.12ZM526.428 -3306.69L524.682 -3307.67L524.682 -3307.67L526.428 -3306.69ZM523.992 -3302.33L522.245 -3303.3L522.245 -3303.3L523.992 -3302.33ZM523.74 -3301.88L522.714 -3300.16L524.483 -3299.1L525.486 -3300.9L523.74 -3301.88ZM523.3 -3302.14L524.325 -3303.86L524.325 -3303.86L523.3 -3302.14ZM176.768 -3207.71L175.021 -3208.69L175.021 -3208.69L176.768 -3207.71ZM152.119 -3009.13L150.185 -3008.62L150.185 -3008.62L152.119 -3009.13ZM271.031 -2849.97L270.006 -2848.25L271.031 -2849.97ZM271.446 -2849.72L273.193 -2848.74L274.139 -2850.44L272.472 -2851.43L271.446 -2849.72ZM271.209 -2849.29L269.462 -2850.27L269.462 -2850.27L271.209 -2849.29ZM268.772 -2844.92L267.026 -2845.9L267.026 -2845.9L268.772 -2844.92ZM151.154 -3008.86L153.088 -3009.37L153.088 -3009.37L151.154 -3008.86ZM270.102 -2849.35L271.848 -2848.38L272.793 -2850.07L271.13 -2851.07L270.102 -2849.35ZM175.898 -3208.2L177.645 -3207.23L177.645 -3207.23L175.898 -3208.2ZM523.374 -3303.26L522.352 -3301.55L524.119 -3300.49L525.12 -3302.29L523.374 -3303.26ZM525.321 -3306.75L527.067 -3305.78L528.015 -3307.48L526.343 -3308.47L525.321 -3306.75ZM329.148 -3333.62L329.674 -3331.69L329.674 -3331.69L329.148 -3333.62ZM172.435 -3210.55L170.689 -3211.52L170.689 -3211.52L172.435 -3210.55ZM147.302 -3008.12L145.368 -3007.61L145.368 -3007.61L147.302 -3008.12ZM268.155 -2845.86L267.126 -2844.15L268.896 -2843.09L269.901 -2844.89L268.155 -2845.86ZM281.481 -2868.75L280.455 -2867.04L280.455 -2867.04L281.481 -2868.75ZM281.921 -2868.49L280.895 -2866.77L282.664 -2865.72L283.667 -2867.52L281.921 -2868.49ZM195.131 -3196.47L196.876 -3195.49L196.878 -3195.5L195.131 -3196.47ZM336.024 -3307.53L336.55 -3305.6L336.55 -3305.6L336.024 -3307.53ZM512.649 -3282.99L511.617 -3281.27L511.618 -3281.27L512.649 -3282.99ZM513.062 -3282.74L514.808 -3281.76L515.751 -3283.45L514.093 -3284.45L513.062 -3282.74ZM512.825 -3282.31L511.078 -3283.29L511.078 -3283.29L512.825 -3282.31ZM510.388 -3277.95L512.135 -3276.97L512.135 -3276.97L510.388 -3277.95ZM510.137 -3277.5L509.114 -3275.78L510.881 -3274.73L511.883 -3276.52L510.137 -3277.5ZM509.697 -3277.76L510.72 -3279.48L510.72 -3279.48L509.697 -3277.76ZM200.258 -3193.44L198.513 -3194.42L198.51 -3194.41L200.258 -3193.44ZM284.433 -2873.98L285.461 -2875.7L285.461 -2875.7L284.433 -2873.98ZM284.846 -2873.73L286.593 -2872.76L287.538 -2874.45L285.875 -2875.45L284.846 -2873.73ZM284.609 -2873.31L286.356 -2872.33L286.356 -2872.33L284.609 -2873.31ZM282.173 -2868.94L283.919 -2867.97L283.919 -2867.97L282.173 -2868.94ZM199.387 -3193.93L197.646 -3194.91L197.643 -3194.9L197.639 -3194.9L199.387 -3193.93ZM283.503 -2873.37L285.249 -2872.39L286.192 -2874.08L284.535 -2875.08L283.503 -2873.37ZM199.388 -3193.93L201.129 -3192.94L201.133 -3192.95L199.388 -3193.93ZM509.77 -3278.88L508.751 -3277.16L510.517 -3276.12L511.516 -3277.91L509.77 -3278.88ZM511.718 -3282.37L513.465 -3281.4L514.41 -3283.09L512.746 -3284.09L511.718 -3282.37ZM336.279 -3306.56L336.805 -3304.63L336.805 -3304.63L336.279 -3306.56ZM196 -3195.98L194.254 -3196.96L194.24 -3196.93L194.227 -3196.91L196 -3195.98ZM196 -3195.98L197.745 -3195.01L197.76 -3195.03L197.774 -3195.06L196 -3195.98ZM281.555 -2869.88L280.526 -2868.16L282.296 -2867.1L283.302 -2868.9L281.555 -2869.88ZM319.832 304.512L321.161 306.007L321.331 305.856L321.462 305.671L319.832 304.512ZM314.138 1042.35L315.785 1041.21L315.657 1041.02L315.49 1040.87L314.138 1042.35ZM199.371 -2722.13L199.811 -2721.87L201.855 -2725.31L201.415 -2725.57L199.371 -2722.13ZM12.9679 -2971.84C40.8935 -2865.86 106.989 -2777.07 199.371 -2722.13L201.415 -2725.57C109.96 -2779.95 44.5018 -2867.87 16.8359 -2972.86L12.9679 -2971.84ZM51.6111 -3282.85C-1.29565 -3188.04 -14.9583 -3077.83 12.9679 -2971.84L16.8359 -2972.86C-10.8297 -3077.86 2.7075 -3187 55.1041 -3280.91L51.6111 -3282.85ZM51.6054 -3282.84L51.6045 -3282.84L55.1107 -3280.92L55.1116 -3280.92L51.6054 -3282.84ZM292.564 -3472.41C189.824 -3444.41 104.471 -3376.74 51.6158 -3282.86L55.1013 -3280.9C107.447 -3373.87 191.938 -3440.84 293.615 -3468.55L292.564 -3472.41ZM594.888 -3430.26C502.433 -3485.48 395.303 -3500.4 292.564 -3472.41L293.615 -3468.55C395.293 -3496.25 501.304 -3481.5 592.837 -3426.82L594.888 -3430.26ZM595.303 -3430.01L594.888 -3430.26L592.837 -3426.82L593.252 -3426.58L595.303 -3430.01ZM595.787 -3426.89L596.024 -3427.32L592.531 -3429.27L592.294 -3428.84L595.787 -3426.89ZM593.35 -3422.53L595.787 -3426.89L592.294 -3428.84L589.857 -3424.48L593.35 -3422.53ZM593.098 -3422.08L593.35 -3422.53L589.857 -3424.48L589.605 -3424.02L593.098 -3422.08ZM589.886 -3421.6L590.326 -3421.33L592.377 -3424.77L591.937 -3425.03L589.886 -3421.6ZM60.3825 -3277.3C166.705 -3467.85 404.156 -3532.53 589.886 -3421.6L591.937 -3425.03C404.242 -3537.14 164.294 -3471.74 56.8895 -3279.25L60.3825 -3277.3ZM22.6178 -2974.13C-4.52712 -3077.15 8.9267 -3185.08 60.3825 -3277.3L56.8895 -3279.25C4.92468 -3186.12 -8.65625 -3077.12 18.7498 -2973.11L22.6178 -2974.13ZM204.369 -2730.8C114.477 -2784.49 49.8382 -2870.82 22.6178 -2974.13L18.7498 -2973.11C46.2321 -2868.81 111.512 -2781.6 202.318 -2727.36L204.369 -2730.8ZM204.784 -2730.55L204.369 -2730.8L202.318 -2727.36L202.733 -2727.11L204.784 -2730.55ZM205.268 -2727.43L205.505 -2727.86L202.012 -2729.81L201.775 -2729.38L205.268 -2727.43ZM202.831 -2723.06L205.268 -2727.43L201.775 -2729.38L199.338 -2725.01L202.831 -2723.06ZM202.58 -2722.61L202.831 -2723.06L199.338 -2725.01L199.087 -2724.56L202.58 -2722.61ZM200.667 -2729.44L198.72 -2725.95L202.213 -2724L204.16 -2727.49L200.667 -2729.44ZM17.785 -2972.85C45.2906 -2868.46 110.573 -2781.14 201.386 -2726.75L203.442 -2730.18C113.539 -2784.03 48.8971 -2870.47 21.653 -2973.87L17.785 -2972.85ZM56.0198 -3279.74C3.92593 -3186.37 -9.68641 -3077.11 17.785 -2972.85L21.653 -2973.87C-5.55727 -3077.14 7.92795 -3185.34 59.5128 -3277.79L56.0198 -3279.74ZM592.009 -3426.16C403.898 -3538.19 163.616 -3472.57 56.0198 -3279.74L59.5128 -3277.79C166.027 -3468.68 403.815 -3533.58 589.962 -3422.72L592.009 -3426.16ZM591.186 -3428.9L589.239 -3425.41L592.732 -3423.46L594.679 -3426.95L591.186 -3428.9ZM293.87 -3467.58C395.129 -3495.17 500.698 -3480.54 591.909 -3426.21L593.956 -3429.65C501.823 -3484.53 395.138 -3499.32 292.819 -3471.44L293.87 -3467.58ZM55.9691 -3280.41C108.186 -3373.15 192.459 -3439.95 293.87 -3467.58L292.819 -3471.44C190.345 -3443.52 105.209 -3376.02 52.4836 -3282.37L55.9691 -3280.41ZM17.8007 -2973.13C-9.79956 -3077.88 3.70641 -3186.75 55.9729 -3280.42L52.4798 -3282.37C-0.296737 -3187.78 -13.9281 -3077.85 13.9327 -2972.11L17.8007 -2973.13ZM201.491 -2726.69C110.493 -2780.96 45.3576 -2868.54 17.8007 -2973.13L13.9327 -2972.11C41.7489 -2866.54 107.52 -2778.08 199.442 -2723.26L201.491 -2726.69ZM212.843 -2745.86L213.284 -2745.6L215.335 -2749.03L214.894 -2749.3L212.843 -2745.86ZM75.2523 -3268.01C-26.3099 -3085.99 35.3595 -2851.87 212.843 -2745.86L214.894 -2749.3C39.2937 -2854.18 -21.7776 -3085.9 78.7453 -3266.06L75.2523 -3268.01ZM299.77 -3445.06C208.219 -3420.11 125.865 -3359.14 75.2503 -3268L78.7472 -3266.06C128.824 -3356.23 210.281 -3416.53 300.822 -3441.2L299.77 -3445.06ZM581.289 -3405.88C492.631 -3459.08 391.322 -3470 299.77 -3445.06L300.822 -3441.2C391.362 -3465.87 491.542 -3455.06 579.231 -3402.45L581.289 -3405.88ZM581.703 -3405.63L581.289 -3405.88L579.231 -3402.45L579.645 -3402.2L581.703 -3405.63ZM582.183 -3402.51L582.42 -3402.94L578.927 -3404.89L578.69 -3404.46L582.183 -3402.51ZM579.747 -3398.15L582.183 -3402.51L578.69 -3404.46L576.254 -3400.1L579.747 -3398.15ZM579.495 -3397.7L579.747 -3398.15L576.254 -3400.1L576.002 -3399.64L579.495 -3397.7ZM576.283 -3397.22L576.723 -3396.95L578.774 -3400.39L578.334 -3400.65L576.283 -3397.22ZM83.872 -3263.03C182.682 -3440.11 403.678 -3500.31 576.282 -3397.22L578.334 -3400.65C403.764 -3504.92 180.271 -3444 80.379 -3264.98L83.872 -3263.03ZM217.846 -2754.52C45.1905 -2857.65 -14.965 -3085.89 83.872 -3263.03L80.379 -3264.98C-19.4973 -3085.98 41.2562 -2855.34 215.794 -2751.09L217.846 -2754.52ZM218.261 -2754.28L217.846 -2754.52L215.794 -2751.09L216.209 -2750.84L218.261 -2754.28ZM218.744 -2751.16L218.982 -2751.59L215.488 -2753.53L215.251 -2753.11L218.744 -2751.16ZM216.308 -2746.79L218.744 -2751.16L215.251 -2753.11L212.815 -2748.74L216.308 -2746.79ZM216.056 -2746.34L216.308 -2746.79L212.815 -2748.74L212.563 -2748.29L216.056 -2746.34ZM79.5093 -3265.46C-20.552 -3086.13 40.1825 -2855.13 214.863 -2750.48L216.918 -2753.91C44.1176 -2857.43 -16.0205 -3086.05 83.0023 -3263.51L79.5093 -3265.46ZM578.406 -3401.78C403.419 -3505.97 179.593 -3444.83 79.5093 -3265.46L83.0023 -3263.51C182.004 -3440.94 403.337 -3501.36 576.359 -3398.34L578.406 -3401.78ZM577.583 -3404.52L575.636 -3401.03L579.129 -3399.08L581.076 -3402.57L577.583 -3404.52ZM301.077 -3440.23C391.222 -3464.79 490.952 -3454.09 578.303 -3401.83L580.357 -3405.26C492.036 -3458.11 391.181 -3468.93 300.025 -3444.09L301.077 -3440.23ZM79.6174 -3265.58C129.558 -3355.5 210.789 -3415.63 301.077 -3440.23L300.025 -3444.09C208.726 -3419.21 126.599 -3358.41 76.1205 -3267.52L79.6174 -3265.58ZM79.6319 -3265.6L79.6324 -3265.6L76.1056 -3267.49L76.1051 -3267.49L79.6319 -3265.6ZM214.971 -2750.42C40.1692 -2855.16 -20.5597 -3086.04 79.615 -3265.57L76.122 -3267.52C-25.0912 -3086.13 36.2341 -2852.85 212.916 -2746.99L214.971 -2750.42ZM214.144 -2753.17L212.197 -2749.68L215.69 -2747.73L217.637 -2751.22L214.144 -2753.17ZM227.08 -2770.11L227.52 -2769.84L229.572 -2773.28L229.132 -2773.54L227.08 -2770.11ZM66.1095 -2985.71C90.2434 -2894.11 147.401 -2817.7 227.08 -2770.11L229.132 -2773.54C150.367 -2820.59 93.8499 -2896.13 69.9775 -2986.73L66.1095 -2985.71ZM99.5024 -3254.25C53.9052 -3172.53 42.0519 -3077.01 66.1095 -2985.71L69.9775 -2986.73C46.1806 -3077.04 57.9081 -3171.49 102.995 -3252.3L99.5024 -3254.25ZM306.901 -3417.99C218.39 -3393.88 144.339 -3335.46 99.498 -3254.24L103 -3252.31C147.324 -3332.59 220.496 -3390.3 307.952 -3414.13L306.901 -3417.99ZM567.96 -3381.57C488.276 -3429.17 395.416 -3442.11 306.901 -3417.99L307.952 -3414.13C395.405 -3437.96 487.147 -3425.19 565.909 -3378.14L567.96 -3381.57ZM568.375 -3381.33L567.96 -3381.57L565.909 -3378.14L566.324 -3377.89L568.375 -3381.33ZM568.858 -3378.21L569.096 -3378.63L565.603 -3380.58L565.365 -3380.16L568.858 -3378.21ZM566.422 -3373.84L568.858 -3378.21L565.365 -3380.16L562.929 -3375.79L566.422 -3373.84ZM566.17 -3373.39L566.422 -3373.84L562.929 -3375.79L562.677 -3375.34L566.17 -3373.39ZM562.958 -3372.91L563.398 -3372.65L565.449 -3376.08L565.009 -3376.35L562.958 -3372.91ZM309.851 -3408.06C395.649 -3431.44 485.491 -3419.18 562.958 -3372.91L565.009 -3376.35C486.614 -3423.17 395.653 -3435.59 308.8 -3411.92L309.851 -3408.06ZM107.998 -3248.62C152.065 -3328.02 223.777 -3384.61 309.851 -3408.06L308.8 -3411.92C221.666 -3388.18 149.082 -3330.89 104.5 -3250.57L107.998 -3248.62ZM107.98 -3248.59L107.98 -3248.59L104.517 -3250.6L104.517 -3250.6L107.98 -3248.59ZM75.7594 -2987.99C52.406 -3076.63 63.648 -3169.14 107.995 -3248.62L104.502 -3250.57C59.6419 -3170.17 48.279 -3076.59 71.8915 -2986.97L75.7594 -2987.99ZM232.078 -2778.77C154.685 -2824.76 99.1878 -2899.08 75.7594 -2987.99L71.8915 -2986.97C95.5804 -2897.07 151.717 -2821.87 230.035 -2775.33L232.078 -2778.77ZM232.495 -2778.52L232.078 -2778.77L230.034 -2775.33L230.451 -2775.09L232.495 -2778.52ZM232.981 -2775.4L233.219 -2775.83L229.726 -2777.78L229.488 -2777.35L232.981 -2775.4ZM230.545 -2771.04L232.981 -2775.4L229.488 -2777.35L227.052 -2772.99L230.545 -2771.04ZM230.293 -2770.59L230.545 -2771.04L227.052 -2772.99L226.8 -2772.53L230.293 -2770.59ZM70.9266 -2986.71C94.6385 -2896.72 150.776 -2821.41 229.103 -2774.72L231.151 -2778.16C153.746 -2824.3 98.2463 -2898.73 74.7946 -2987.73L70.9266 -2986.71ZM103.632 -3251.05C58.6421 -3170.42 47.2494 -3076.57 70.9266 -2986.71L74.7946 -2987.73C51.3764 -3076.61 62.6482 -3169.39 107.125 -3249.1L103.632 -3251.05ZM308.545 -3412.89C221.147 -3389.07 148.342 -3331.61 103.63 -3251.05L107.127 -3249.11C151.325 -3328.74 223.258 -3385.5 309.596 -3409.03L308.545 -3412.89ZM565.08 -3377.47C486.558 -3424.22 395.498 -3436.58 308.545 -3412.89L309.596 -3409.03C395.496 -3432.44 485.438 -3420.23 563.034 -3374.03L565.08 -3377.47ZM564.258 -3380.22L562.311 -3376.73L565.804 -3374.78L567.751 -3378.27L564.258 -3380.22ZM308.207 -3413.17C395.242 -3436.88 486.539 -3424.23 564.981 -3377.52L567.028 -3380.96C487.664 -3428.22 395.251 -3441.03 307.155 -3417.03L308.207 -3413.17ZM103.871 -3251.82C148.063 -3331.87 221.015 -3389.41 308.207 -3413.17L307.155 -3417.03C218.908 -3392.98 145.079 -3334.74 100.369 -3253.76L103.871 -3251.82ZM103.853 -3251.79L103.854 -3251.79L100.385 -3253.79L100.384 -3253.78L103.853 -3251.79ZM70.9423 -2986.99C47.2106 -3077.06 58.9071 -3171.24 103.865 -3251.81L100.372 -3253.76C54.9042 -3172.28 43.0819 -3077.03 67.0743 -2985.97L70.9423 -2986.99ZM229.209 -2774.66C150.898 -2821.59 94.7052 -2896.8 70.9423 -2986.99L67.0743 -2985.97C91.0982 -2894.79 147.929 -2818.71 227.153 -2771.23L229.209 -2774.66ZM228.38 -2777.41L226.434 -2773.92L229.927 -2771.97L231.874 -2775.46L228.38 -2777.41ZM239.977 -2794.91L240.417 -2794.65L242.464 -2798.08L242.024 -2798.35L239.977 -2794.91ZM122.561 -3240.48C35.8217 -3085.02 88.4617 -2885.17 239.977 -2794.91L242.024 -2798.35C92.3986 -2887.48 40.3528 -3084.93 126.054 -3238.53L122.561 -3240.48ZM122.557 -3240.47L122.556 -3240.47L126.059 -3238.53L126.06 -3238.54L122.557 -3240.47ZM314.031 -3390.93C235.865 -3369.63 165.817 -3317.57 122.564 -3240.48L126.053 -3238.52C168.77 -3314.66 237.93 -3366.05 315.083 -3387.07L314.031 -3390.93ZM554.2 -3357.77C478.472 -3402.76 392.199 -3412.23 314.031 -3390.93L315.083 -3387.07C392.234 -3408.1 477.386 -3398.75 552.157 -3354.33L554.2 -3357.77ZM554.616 -3357.53L554.2 -3357.77L552.157 -3354.33L552.573 -3354.09L554.616 -3357.53ZM555.103 -3354.4L555.341 -3354.83L551.848 -3356.78L551.61 -3356.35L555.103 -3354.4ZM552.667 -3350.04L555.103 -3354.4L551.61 -3356.35L549.174 -3351.99L552.667 -3350.04ZM552.415 -3349.59L552.667 -3350.04L549.174 -3351.99L548.922 -3351.54L552.415 -3349.59ZM549.202 -3349.11L549.643 -3348.84L551.694 -3352.28L551.253 -3352.54L549.202 -3349.11ZM131.257 -3235.21C215.043 -3385.37 402.497 -3436.74 549.202 -3349.11L551.253 -3352.54C402.58 -3441.35 212.631 -3389.26 127.764 -3237.16L131.257 -3235.21ZM244.977 -2803.57C98.5715 -2891.02 47.2426 -3084.64 131.257 -3235.21L127.764 -3237.16C42.7087 -3084.72 94.6401 -2888.71 242.926 -2800.14L244.977 -2803.57ZM245.392 -2803.33L244.977 -2803.57L242.926 -2800.14L243.341 -2799.89L245.392 -2803.33ZM245.875 -2800.21L246.113 -2800.63L242.62 -2802.58L242.382 -2802.16L245.875 -2800.21ZM243.439 -2795.84L245.875 -2800.21L242.382 -2802.16L239.946 -2797.79L243.439 -2795.84ZM243.187 -2795.39L243.439 -2795.84L239.946 -2797.79L239.694 -2797.34L243.187 -2795.39ZM241.275 -2802.22L239.328 -2798.73L242.821 -2796.78L244.768 -2800.27L241.275 -2802.22ZM126.894 -3237.64C41.6539 -3084.88 93.5664 -2888.49 241.993 -2799.53L244.05 -2802.96C97.4988 -2890.8 46.1869 -3084.79 130.387 -3235.7L126.894 -3237.64ZM551.325 -3353.67C402.234 -3442.39 211.952 -3390.08 126.894 -3237.64L130.387 -3235.7C214.365 -3386.2 402.156 -3437.78 549.279 -3350.23L551.325 -3353.67ZM550.502 -3356.41L548.556 -3352.92L552.049 -3350.97L553.995 -3354.46L550.502 -3356.41ZM315.337 -3386.11C392.092 -3407.02 476.795 -3397.78 551.23 -3353.72L553.267 -3357.16C477.876 -3401.79 392.056 -3411.16 314.286 -3389.97L315.337 -3386.11ZM126.922 -3238.04C169.503 -3313.93 238.438 -3365.15 315.337 -3386.11L314.286 -3389.97C236.374 -3368.74 166.55 -3316.84 123.433 -3239.99L126.922 -3238.04ZM242.101 -2799.47C93.275 -2888.45 41.5703 -3085.07 126.924 -3238.04L123.431 -3239.99C37.0402 -3085.16 89.3371 -2886.14 240.048 -2796.04L242.101 -2799.47ZM253.654 -2819L254.094 -2818.74L256.145 -2822.17L255.705 -2822.44L253.654 -2819ZM146.329 -3226.28C67.1014 -3084.29 115.193 -2901.71 253.654 -2819L255.705 -2822.44C119.127 -2904.02 71.6337 -3084.2 149.822 -3224.33L146.329 -3226.28ZM321.161 -3363.87C249.689 -3344.4 185.649 -3296.75 146.329 -3226.28L149.822 -3224.33C188.606 -3293.84 251.754 -3340.81 322.213 -3360.01L321.161 -3363.87ZM540.874 -3333.47C471.533 -3374.64 392.638 -3383.35 321.161 -3363.87L322.213 -3360.01C392.67 -3379.21 470.446 -3370.64 538.832 -3330.03L540.874 -3333.47ZM541.291 -3333.22L540.874 -3333.47L538.832 -3330.03L539.249 -3329.78L541.291 -3333.22ZM541.778 -3330.1L542.016 -3330.53L538.523 -3332.48L538.285 -3332.05L541.778 -3330.1ZM539.342 -3325.73L541.778 -3330.1L538.285 -3332.05L535.849 -3327.68L539.342 -3325.73ZM539.09 -3325.28L539.342 -3325.73L535.849 -3327.68L535.597 -3327.23L539.09 -3325.28ZM535.877 -3324.8L536.318 -3324.54L538.369 -3327.97L537.929 -3328.24L535.877 -3324.8ZM155.025 -3221.01C231.5 -3358.07 402.296 -3404.59 535.877 -3324.8L537.929 -3328.24C402.382 -3409.2 229.09 -3361.96 151.532 -3222.96L155.025 -3221.01ZM258.656 -2827.67C125.024 -2907.49 78.5222 -3083.91 155.025 -3221.01L151.532 -3222.96C73.9899 -3083.99 121.089 -2905.18 256.605 -2824.23L258.656 -2827.67ZM259.071 -2827.42L258.656 -2827.67L256.605 -2824.23L257.02 -2823.98L259.071 -2827.42ZM259.555 -2824.3L259.792 -2824.73L256.299 -2826.68L256.061 -2826.25L259.555 -2824.3ZM257.118 -2819.93L259.555 -2824.3L256.061 -2826.25L253.625 -2821.88L257.118 -2819.93ZM256.866 -2819.48L257.118 -2819.93L253.625 -2821.88L253.373 -2821.43L256.866 -2819.48ZM254.954 -2826.31L253.008 -2822.82L256.501 -2820.87L258.447 -2824.36L254.954 -2826.31ZM150.662 -3223.45C72.9352 -3084.15 120.016 -2904.96 255.672 -2823.62L257.729 -2827.05C123.951 -2907.26 77.4666 -3084.06 154.155 -3221.5L150.662 -3223.45ZM538 -3329.36C402.037 -3410.25 228.412 -3362.79 150.662 -3223.45L154.155 -3221.5C230.823 -3358.9 401.956 -3405.64 535.955 -3325.93L538 -3329.36ZM537.177 -3332.11L535.231 -3328.62L538.724 -3326.67L540.67 -3330.16L537.177 -3332.11ZM322.468 -3359.04C392.528 -3378.13 469.855 -3369.67 537.905 -3329.41L539.942 -3332.85C470.938 -3373.67 392.494 -3382.27 321.416 -3362.9L322.468 -3359.04ZM150.692 -3223.84C189.34 -3293.11 252.262 -3339.91 322.468 -3359.04L321.416 -3362.9C250.197 -3343.5 186.383 -3296.02 147.199 -3225.79L150.692 -3223.84ZM255.783 -2823.56C120.003 -2904.99 72.8516 -3084.34 150.692 -3223.84L147.199 -3225.79C68.3203 -3084.43 116.067 -2902.68 253.725 -2820.13L255.783 -2823.56ZM267.055 -2843.02L267.495 -2842.76L269.546 -2846.19L269.105 -2846.45L267.055 -2843.02ZM144.403 -3007.35C162.771 -2937.64 206.175 -2879.38 267.054 -2843.02L269.106 -2846.45C209.144 -2882.27 166.379 -2939.65 148.271 -3008.37L144.403 -3007.35ZM169.819 -3212C134.982 -3149.57 126.035 -3077.06 144.403 -3007.35L148.271 -3008.37C130.163 -3077.09 138.986 -3148.54 173.312 -3210.06L169.819 -3212ZM328.368 -3336.52C263.594 -3318.87 205.486 -3275.93 169.819 -3212L173.312 -3210.06C208.439 -3273.01 265.65 -3315.29 329.419 -3332.66L328.368 -3336.52ZM527.276 -3309.09C464.591 -3346.53 393.144 -3354.17 328.368 -3336.52L329.419 -3332.66C393.187 -3350.04 463.509 -3342.51 525.225 -3305.65L527.276 -3309.09ZM527.691 -3308.84L527.276 -3309.09L525.225 -3305.65L525.64 -3305.4L527.691 -3308.84ZM528.175 -3305.72L528.412 -3306.15L524.919 -3308.09L524.682 -3307.67L528.175 -3305.72ZM525.738 -3301.35L528.175 -3305.72L524.682 -3307.67L522.245 -3303.3L525.738 -3301.35ZM525.486 -3300.9L525.738 -3301.35L522.245 -3303.3L521.993 -3302.85L525.486 -3300.9ZM522.274 -3300.42L522.714 -3300.16L524.765 -3303.59L524.325 -3303.86L522.274 -3300.42ZM178.514 -3206.74C247.477 -3330.34 401.818 -3372.37 522.274 -3300.42L524.325 -3303.86C401.904 -3376.98 245.067 -3334.22 175.021 -3208.69L178.514 -3206.74ZM154.053 -3009.64C136.314 -3076.96 145.129 -3146.91 178.514 -3206.74L175.021 -3208.69C141.127 -3147.94 132.185 -3076.93 150.185 -3008.62L154.053 -3009.64ZM272.057 -2851.68C213.737 -2886.52 171.715 -2942.6 154.053 -3009.64L150.185 -3008.62C168.11 -2940.59 210.773 -2883.63 270.006 -2848.25L272.057 -2851.68ZM272.472 -2851.43L272.057 -2851.68L270.006 -2848.25L270.421 -2848L272.472 -2851.43ZM272.955 -2848.32L273.193 -2848.74L269.7 -2850.69L269.462 -2850.27L272.955 -2848.32ZM270.519 -2843.95L272.955 -2848.32L269.462 -2850.27L267.026 -2845.9L270.519 -2843.95ZM270.267 -2843.5L270.519 -2843.95L267.026 -2845.9L266.774 -2845.45L270.267 -2843.5ZM149.22 -3008.35C167.168 -2940.24 209.833 -2883.17 269.073 -2847.64L271.13 -2851.07C212.8 -2886.05 170.774 -2942.25 153.088 -3009.37L149.22 -3008.35ZM174.152 -3209.17C140.128 -3148.2 131.155 -3076.92 149.22 -3008.35L153.088 -3009.37C135.284 -3076.94 144.13 -3147.16 177.645 -3207.23L174.152 -3209.17ZM524.396 -3304.98C401.558 -3378.03 244.389 -3335.05 174.152 -3209.17L177.645 -3207.23C246.8 -3331.17 401.478 -3373.42 522.352 -3301.55L524.396 -3304.98ZM523.574 -3307.73L521.627 -3304.24L525.12 -3302.29L527.067 -3305.78L523.574 -3307.73ZM329.674 -3331.69C393.048 -3348.96 462.92 -3341.54 524.298 -3305.03L526.343 -3308.47C463.997 -3345.56 393.003 -3353.1 328.623 -3335.55L329.674 -3331.69ZM174.182 -3209.57C209.172 -3272.28 266.156 -3314.39 329.674 -3331.69L328.623 -3335.55C264.1 -3317.97 206.219 -3275.2 170.689 -3211.52L174.182 -3209.57ZM149.236 -3008.63C131.193 -3077.11 139.985 -3148.28 174.182 -3209.57L170.689 -3211.52C135.981 -3149.32 127.065 -3077.08 145.368 -3007.61L149.236 -3008.63ZM269.184 -2847.58C209.677 -2883.27 167.235 -2940.32 149.236 -3008.63L145.368 -3007.61C163.626 -2938.32 206.705 -2880.39 267.126 -2844.15L269.184 -2847.58ZM268.355 -2850.33L266.408 -2846.84L269.901 -2844.89L271.848 -2848.38L268.355 -2850.33ZM280.455 -2867.04L280.895 -2866.77L282.946 -2870.21L282.506 -2870.47L280.455 -2867.04ZM193.386 -3197.45C128.898 -3082.3 168.249 -2934.06 280.455 -2867.04L282.506 -2870.47C172.177 -2936.37 133.437 -3082.22 196.876 -3195.49L193.386 -3197.45ZM335.498 -3309.46C277.412 -3293.63 225.597 -3255.18 193.385 -3197.44L196.878 -3195.5C228.555 -3252.27 279.478 -3290.05 336.55 -3305.6L335.498 -3309.46ZM513.68 -3284.7C457.655 -3318.41 393.581 -3325.29 335.498 -3309.46L336.55 -3305.6C393.624 -3321.15 456.568 -3314.4 511.617 -3281.27L513.68 -3284.7ZM514.093 -3284.45L513.68 -3284.7L511.618 -3281.27L512.031 -3281.02L514.093 -3284.45ZM514.571 -3281.34L514.808 -3281.76L511.315 -3283.71L511.078 -3283.29L514.571 -3281.34ZM512.135 -3276.97L514.571 -3281.34L511.078 -3283.29L508.642 -3278.92L512.135 -3276.97ZM511.883 -3276.52L512.135 -3276.97L508.642 -3278.92L508.39 -3278.47L511.883 -3276.52ZM508.674 -3276.04L509.114 -3275.78L511.159 -3279.22L510.72 -3279.48L508.674 -3276.04ZM202.003 -3192.47C263.732 -3302.68 401.063 -3340.08 508.674 -3276.04L510.72 -3279.48C401.147 -3344.68 261.326 -3306.56 198.513 -3194.42L202.003 -3192.47ZM285.461 -2875.7C178 -2940.12 140.6 -3082 202.006 -3192.47L198.51 -3194.41C136.07 -3082.08 174.067 -2937.82 283.404 -2872.27L285.461 -2875.7ZM285.875 -2875.45L285.461 -2875.7L283.404 -2872.27L283.818 -2872.02L285.875 -2875.45ZM286.356 -2872.33L286.593 -2872.76L283.1 -2874.71L282.863 -2874.28L286.356 -2872.33ZM283.919 -2867.97L286.356 -2872.33L282.863 -2874.28L280.426 -2869.92L283.919 -2867.97ZM283.667 -2867.52L283.919 -2867.97L280.426 -2869.92L280.174 -2869.46L283.667 -2867.52ZM197.639 -3194.9C135.016 -3082.24 172.993 -2937.6 282.471 -2871.66L284.535 -2875.08C176.928 -2939.9 139.545 -3082.15 201.135 -3192.95L197.639 -3194.9ZM197.647 -3194.91L197.646 -3194.91L201.128 -3192.94L201.129 -3192.94L197.647 -3194.91ZM510.789 -3280.6C400.801 -3345.73 260.647 -3307.39 197.643 -3194.9L201.133 -3192.95C263.055 -3303.51 400.724 -3341.13 508.751 -3277.16L510.789 -3280.6ZM509.971 -3283.35L508.023 -3279.86L511.516 -3277.91L513.465 -3281.4L509.971 -3283.35ZM336.805 -3304.63C393.485 -3320.08 455.979 -3313.42 510.69 -3280.66L512.746 -3284.09C457.06 -3317.44 393.44 -3324.21 335.753 -3308.49L336.805 -3304.63ZM197.747 -3195.01C229.288 -3251.54 279.987 -3289.15 336.805 -3304.63L335.753 -3308.49C277.92 -3292.73 226.331 -3254.45 194.254 -3196.96L197.747 -3195.01ZM197.774 -3195.06L197.774 -3195.06L194.227 -3196.91L194.226 -3196.91L197.774 -3195.06ZM282.585 -2871.59C173.05 -2937.34 134.656 -3082.36 197.745 -3195.01L194.255 -3196.96C130.119 -3082.44 169.121 -2935.04 280.526 -2868.16L282.585 -2871.59ZM281.756 -2874.34L279.809 -2870.85L283.302 -2868.9L285.249 -2872.39L281.756 -2874.34ZM845.5 31C627.873 31 435.362 138.532 318.202 303.353L321.462 305.671C437.905 141.86 629.223 35 845.5 35V31ZM1492 677.5C1492 320.448 1202.55 31 845.5 31V35C1200.34 35 1488 322.657 1488 677.5H1492ZM845.5 1324C1202.55 1324 1492 1034.55 1492 677.5H1488C1488 1032.34 1200.34 1320 845.5 1320V1324ZM312.49 1043.48C429.045 1212.91 624.299 1324 845.5 1324V1320C625.671 1320 431.626 1209.6 315.785 1041.21L312.49 1043.48ZM151 676C151 821.581 213.345 952.603 312.786 1043.82L315.49 1040.87C216.84 950.381 155 820.414 155 676H151ZM318.503 303.018C215.74 394.416 151 527.649 151 676H155C155 528.839 219.216 396.678 321.161 306.007L318.503 303.018Z" fill="url(#paint1_linear)" fill-opacity="0.6" mask="url(#path-1-inside-1)"/>
</g>
<defs>
<filter id="filter0_b" x="-119.186" y="-3604.19" width="1729.19" height="5046.19" filterUnits="userSpaceOnUse" color-interpolation-filters="sRGB">
<feFlood flood-opacity="0" result="BackgroundImageFix"/>
<feGaussianBlur in="BackgroundImage" stdDeviation="60"/>
<feComposite in2="SourceAlpha" operator="in" result="effect1_backgroundBlur"/>
<feBlend mode="normal" in="SourceGraphic" in2="effect1_backgroundBlur" result="shape"/>
</filter>
<radialGradient id="paint0_radial" cx="0" cy="0" r="1" gradientUnits="userSpaceOnUse" gradientTransform="translate(649.499 547.496) rotate(-90) scale(387.5)">
<stop stop-color="#FE3449"/>
<stop offset="1" stop-color="#FF374A"/>
</radialGradient>
<linearGradient id="paint1_linear" x1="1019" y1="656.996" x2="497.999" y2="747.996" gradientUnits="userSpaceOnUse">
<stop stop-color="white"/>
<stop offset="1" stop-color="white" stop-opacity="0"/>
</linearGradient>
</defs>
</svg>
