<svg width="518" height="1289" viewBox="0 0 518 1289" fill="none" xmlns="http://www.w3.org/2000/svg">
<g filter="url(#filter0_b)">
<mask id="path-1-inside-1" fill="white">
<path fill-rule="evenodd" clip-rule="evenodd" d="M0.00012207 644.5C0.00012207 288.552 288.553 -4.24463e-06 644.5 0C1000.45 4.24463e-06 1289 288.552 1289 644.5C1289 1000.45 1000.45 1289 644.5 1289C288.553 1289 0.00012207 1000.45 0.00012207 644.5Z"/>
</mask>
<path fill-rule="evenodd" clip-rule="evenodd" d="M0.00012207 644.5C0.00012207 288.552 288.553 -4.24463e-06 644.5 0C1000.45 4.24463e-06 1289 288.552 1289 644.5C1289 1000.45 1000.45 1289 644.5 1289C288.553 1289 0.00012207 1000.45 0.00012207 644.5Z" fill="url(#paint0_radial)" fill-opacity="0.5"/>
<path d="M644.5 0L644.5 -2L644.5 0ZM644.5 -2C287.448 -2 -1.99988 287.448 -1.99988 644.5H2.00012C2.00012 289.657 289.657 2 644.5 2L644.5 -2ZM1291 644.5C1291 287.448 1001.55 -2 644.5 -2L644.5 2C999.343 2 1287 289.657 1287 644.5H1291ZM644.5 1291C1001.55 1291 1291 1001.55 1291 644.5H1287C1287 999.343 999.343 1287 644.5 1287V1291ZM-1.99988 644.5C-1.99988 1001.55 287.448 1291 644.5 1291V1287C289.657 1287 2.00012 999.343 2.00012 644.5H-1.99988Z" fill="url(#paint1_linear)" fill-opacity="0.6" mask="url(#path-1-inside-1)"/>
</g>
<defs>
<filter id="filter0_b" x="-19.9999" y="-20" width="1329" height="1329" filterUnits="userSpaceOnUse" color-interpolation-filters="sRGB">
<feFlood flood-opacity="0" result="BackgroundImageFix"/>
<feGaussianBlur in="BackgroundImage" stdDeviation="10"/>
<feComposite in2="SourceAlpha" operator="in" result="effect1_backgroundBlur"/>
<feBlend mode="normal" in="SourceGraphic" in2="effect1_backgroundBlur" result="shape"/>
</filter>
<radialGradient id="paint0_radial" cx="0" cy="0" r="1" gradientUnits="userSpaceOnUse" gradientTransform="translate(919.688 467) rotate(-90) scale(379 181.543)">
<stop stop-color="white" stop-opacity="0"/>
<stop offset="1" stop-color="white"/>
</radialGradient>
<linearGradient id="paint1_linear" x1="1092.8" y1="574.098" x2="843.013" y2="594.996" gradientUnits="userSpaceOnUse">
<stop stop-color="white"/>
<stop offset="1" stop-color="white" stop-opacity="0"/>
</linearGradient>
</defs>
</svg>
